<?xml version="1.0" standalone="no"?>
<!DOCTYPE svg PUBLIC "-//W3C//DTD SVG 20010904//EN"
 "http://www.w3.org/TR/2001/REC-SVG-20010904/DTD/svg10.dtd">
<svg version="1.0" xmlns="http://www.w3.org/2000/svg"
 width="960.000000pt" height="960.000000pt" viewBox="0 0 960.000000 960.000000"
 preserveAspectRatio="xMidYMid meet">
<metadata>
Created by potrace 1.14, written by Peter Selinger 2001-2017
</metadata>
<g transform="translate(0.000000,960.000000) scale(0.100000,-0.100000)"
fill="#000000" stroke="none">
<path d="M387 8963 c-4 -3 -20 -6 -37 -5 l-30 1 2 -3892 3 -3892 870 -1 c479
-1 873 -2 878 -3 4 0 7 -7 7 -14 0 -22 79 -167 127 -235 70 -98 230 -252 262
-252 8 0 11 -3 8 -7 -7 -6 6 -14 123 -73 86 -43 175 -75 240 -85 25 -4 54 -10
65 -12 11 -3 75 -7 142 -8 128 -3 216 9 333 44 84 26 237 97 260 121 3 3 18
14 34 24 98 63 247 224 293 316 4 8 12 20 19 27 6 6 24 42 39 80 16 37 31 70
33 73 2 3 925 5 2050 6 1484 1 2055 4 2075 12 15 6 27 10 27 7 0 -2 21 5 47
17 145 62 249 172 297 311 20 60 27 96 31 177 2 36 7 110 11 165 3 55 6 106 7
113 0 7 15 12 38 12 57 0 82 14 104 56 19 37 20 58 19 455 -1 411 -1 417 -22
444 -12 15 -22 24 -22 20 0 -5 -9 0 -20 10 -11 10 -20 15 -20 12 0 -4 -10 -3
-22 2 -19 7 -22 14 -20 57 6 107 7 1053 2 1112 -3 35 -2 66 2 68 5 3 5 10 2
16 -4 6 -8 46 -10 87 -3 102 -14 324 -19 386 -3 28 -7 82 -10 120 -8 107 -15
172 -31 295 -4 25 -8 59 -9 75 -2 17 -6 41 -8 55 -3 14 -8 43 -11 65 -3 22
-10 65 -16 95 -6 30 -13 66 -16 78 -3 13 -12 49 -20 80 -8 32 -17 68 -20 82
-9 49 -34 166 -54 255 -11 50 -23 101 -26 115 -3 14 -10 45 -16 70 -6 25 -12
54 -14 65 -2 11 -8 38 -14 60 -6 22 -12 52 -14 66 -2 15 -7 32 -11 38 -4 7 -8
22 -10 34 -1 12 -13 63 -25 112 -12 50 -24 99 -26 110 -2 11 -15 65 -30 120
-14 55 -27 105 -28 110 -14 57 -61 244 -80 320 -2 6 -6 24 -10 40 -5 17 -16
59 -27 95 -17 63 -24 91 -35 155 -3 17 -11 36 -16 43 -6 6 -8 12 -5 12 3 0 1
15 -4 33 -6 17 -12 39 -14 47 -2 8 -13 51 -25 95 -12 44 -23 84 -25 90 -8 40
-116 440 -122 455 -3 8 -7 22 -9 31 -2 9 -17 46 -33 82 -17 37 -27 67 -23 67
11 0 113 -18 197 -35 14 -3 37 -7 53 -10 15 -3 36 -9 47 -12 11 -4 25 -8 30
-9 6 -1 46 -16 89 -33 130 -52 256 -144 316 -231 13 -19 27 -37 30 -40 23 -21
119 -255 108 -265 -2 -1 -18 -10 -35 -19 -18 -9 -40 -27 -48 -40 -20 -30 -36
-86 -28 -98 3 -6 7 -29 9 -52 3 -39 6 -60 18 -121 2 -11 7 -42 10 -70 4 -27
10 -63 12 -80 3 -16 7 -44 8 -61 2 -16 6 -40 10 -51 4 -11 9 -40 11 -64 2 -24
7 -55 10 -69 3 -14 7 -41 9 -60 4 -35 13 -93 22 -140 2 -14 7 -45 10 -70 3
-25 7 -56 10 -70 3 -14 7 -38 9 -55 2 -16 6 -43 9 -60 6 -36 16 -101 21 -135
2 -14 7 -47 11 -75 11 -88 12 -88 122 -81 54 3 115 8 137 10 22 3 66 8 98 11
32 3 69 11 81 17 37 16 51 92 33 183 -3 17 -9 53 -12 80 -6 52 -11 90 -21 140
-3 17 -7 46 -10 65 -9 68 -26 175 -31 200 -3 14 -6 41 -8 60 -2 19 -4 35 -5
35 -1 0 -3 9 -4 20 -7 48 -19 132 -22 150 -2 10 -6 37 -9 60 -3 22 -8 51 -11
65 -8 42 -15 93 -18 130 -2 19 -4 35 -5 35 -3 0 -6 20 -15 85 -9 61 -37 105
-84 129 -22 11 -41 19 -43 17 -2 -2 -21 -6 -41 -9 -35 -4 -37 -3 -44 27 -3 17
-20 65 -37 106 -88 215 -262 383 -492 475 -38 15 -79 31 -90 36 -17 7 -88 28
-120 35 -50 11 -126 23 -185 30 -25 3 -58 7 -75 9 -16 2 -46 4 -66 4 -32 1
-42 8 -78 56 -71 94 -183 196 -286 263 -61 39 -265 128 -265 115 0 -3 -6 -1
-12 5 -7 5 -29 13 -48 16 -19 3 -46 8 -60 11 -36 8 -141 17 -170 15 -14 -1
-29 -2 -35 -1 -5 0 -32 0 -60 0 -56 0 -79 1 -97 2 -7 0 -40 0 -73 -1 -33 -1
-64 -1 -70 0 -24 4 -146 0 -155 -5 -5 -3 -11 -1 -14 4 -3 5 -21 5 -41 1 -19
-4 -37 -4 -40 0 -3 4 -21 4 -40 0 -19 -4 -37 -4 -40 0 -3 4 -21 4 -40 0 -19
-4 -37 -4 -40 0 -3 4 -21 4 -40 0 -19 -4 -37 -4 -40 0 -3 4 -21 4 -40 0 -19
-4 -37 -4 -40 0 -3 4 -21 4 -40 0 -19 -4 -37 -4 -40 0 -3 4 -22 4 -42 -1 -21
-4 -38 -8 -38 -8 0 6 -87 14 -90 9 -3 -4 -21 -4 -40 0 -19 4 -35 4 -35 0 0 -4
-18 -4 -40 0 -22 4 -40 4 -40 0 0 -4 -20 -4 -45 0 -25 4 -45 4 -45 1 0 -7 -84
-5 -103 2 -6 2 -21 1 -32 -3 -11 -4 -31 -4 -45 0 -14 4 -34 4 -45 0 -11 -4
-32 -4 -46 0 -15 4 -32 4 -39 0 -6 -4 -27 -4 -46 0 -19 4 -36 4 -39 0 -2 -4
-23 -4 -45 0 -22 4 -40 5 -40 1 0 -7 -99 -6 -106 2 -3 2 -20 1 -38 -3 -19 -4
-40 -4 -46 0 -7 4 -25 4 -41 0 -15 -5 -30 -6 -33 -3 -7 7 -253 6 -265 -1 -5
-4 -12 -2 -15 3 -3 5 -21 5 -41 1 -19 -4 -37 -4 -40 0 -3 4 -21 4 -40 0 -19
-4 -37 -4 -40 0 -3 4 -21 4 -40 0 -19 -4 -37 -4 -40 0 -3 4 -21 4 -40 0 -19
-4 -37 -4 -40 0 -3 4 -21 4 -40 0 -19 -4 -37 -4 -40 0 -3 4 -21 4 -40 0 -19
-4 -37 -4 -40 0 -3 4 -20 5 -37 1 -33 -7 -92 -5 -115 4 -7 2 -13 1 -13 -3 0
-7 -126 -6 -147 2 -7 3 -15 2 -17 -3 -3 -4 -22 -5 -43 -2 -21 4 -56 4 -79 1
-22 -4 -49 -3 -60 0 -10 4 -30 4 -44 0 -14 -4 -35 -4 -46 0 -11 5 -26 5 -33 0
-7 -4 -28 -4 -46 0 -18 4 -38 4 -45 0 -7 -4 -27 -4 -46 0 -20 5 -34 4 -34 -2
0 -5 -5 -6 -10 -3 -6 4 -43 6 -83 5 -39 -1 -79 -1 -87 -1 -58 2 -258 2 -266 0
-5 -1 -13 0 -19 1 -22 4 -146 0 -155 -5 -5 -3 -11 -1 -14 4 -4 6 -18 6 -35 1
-15 -4 -34 -4 -42 0 -7 5 -20 5 -28 1 -9 -4 -27 -5 -41 -1 -14 3 -40 3 -58 -1
-17 -4 -34 -3 -37 2 -3 4 -16 4 -28 0 -12 -5 -32 -5 -44 0 -12 4 -25 4 -28 0
-3 -5 -21 -5 -40 -1 -19 4 -35 5 -35 1 0 -5 -56 -6 -70 -1 -3 1 -9 1 -15 0
-23 -5 -155 -1 -165 5 -5 3 -10 3 -10 -2 0 -4 -19 -7 -42 -6 -80 5 -130 5
-135 -1 -3 -2 -15 -1 -28 4 -13 5 -26 6 -29 2 -8 -8 -103 -5 -116 3 -6 3 -10
3 -10 -2 0 -4 -19 -7 -42 -5 -24 1 -49 3 -55 2 -48 0 -110 0 -149 1 -25 0 -48
-2 -51 -5 -3 -2 -15 -1 -28 4 -13 5 -26 6 -29 2 -8 -8 -103 -5 -116 3 -6 3
-10 3 -10 -2 0 -4 -19 -7 -42 -5 -48 3 -45 3 -127 1 -33 -1 -64 1 -69 5 -6 3
-13 2 -16 -3 -3 -4 -23 -5 -44 -1 -21 3 -47 3 -58 0 -10 -4 -29 -4 -41 1 -12
5 -25 4 -28 0 -3 -5 -21 -5 -40 -1 -19 4 -35 5 -35 1 0 -8 -53 -6 -67 2 -6 4
-13 4 -16 0z"/>
</g>
</svg>
