<?xml version="1.0" standalone="no"?>
<!DOCTYPE svg PUBLIC "-//W3C//DTD SVG 20010904//EN"
 "http://www.w3.org/TR/2001/REC-SVG-20010904/DTD/svg10.dtd">
<svg version="1.0" xmlns="http://www.w3.org/2000/svg"
 width="1072.000000pt" height="1072.000000pt" viewBox="0 0 1072.000000 1072.000000"
 preserveAspectRatio="xMidYMid meet">
<metadata>
Created by potrace 1.14, written by Peter Selinger 2001-2017
</metadata>
<g transform="translate(0.000000,1072.000000) scale(0.100000,-0.100000)"
fill="#000000" stroke="none">
<path d="M129 9918 c-2 -3 -8 -250 -9 -349 -1 -25 0 -50 1 -55 1 -5 1 -11 -1
-14 -1 -3 -3 -149 -5 -325 -2 -176 -6 -491 -9 -700 -4 -209 -8 -553 -11 -765
-3 -212 -7 -542 -10 -735 -11 -742 -15 -984 -20 -1390 -3 -231 -8 -580 -11
-775 -2 -195 -6 -495 -8 -666 -2 -172 -7 -317 -10 -323 -4 -6 -3 -11 2 -11 6
0 7 -14 2 -35 -5 -21 -4 -35 2 -35 5 0 7 -4 3 -9 -10 -17 -13 -71 -3 -71 5 0
6 -5 2 -11 -3 -6 -8 -160 -10 -343 -9 -722 -11 -853 -17 -863 -4 -6 -4 -13 0
-16 3 -4 6 -28 5 -54 -1 -47 -7 -459 -17 -1178 l-5 -351 203 1 c111 0 217 -3
235 -6 17 -4 34 -3 37 1 4 7 68 4 93 -5 6 -2 12 -1 12 3 0 4 19 7 43 5 23 -1
42 -2 42 -3 0 -1 10 -3 23 -4 12 -2 22 0 22 4 0 8 55 4 69 -4 5 -4 12 -2 16 4
4 7 12 7 25 0 10 -6 21 -6 24 -1 3 4 18 6 33 4 42 -6 161 -5 172 1 5 4 12 3
15 -2 5 -9 47 -9 63 1 7 4 14 3 17 -1 6 -10 36 -9 54 2 6 4 12 4 12 -1 0 -4
357 -9 793 -10 1681 -3 3156 -11 3166 -18 6 -3 11 -2 11 4 0 5 10 7 23 5 12
-3 28 -5 35 -5 48 2 277 1 1267 -3 3646 -17 3571 -17 3550 -2 -11 9 -24 16
-28 16 -5 0 -22 9 -38 21 -16 11 -29 17 -29 13 0 -4 -8 -1 -17 7 -10 8 -31 21
-48 29 -16 8 -63 34 -103 57 -41 24 -85 46 -98 49 -13 3 -24 10 -24 15 0 5 -5
9 -10 9 -6 0 -28 11 -49 24 -21 14 -42 22 -45 19 -3 -4 -6 -2 -6 4 0 6 -12 16
-27 22 -16 5 -52 24 -81 40 -29 17 -85 47 -125 68 -39 20 -74 39 -77 42 -3 3
-32 20 -65 36 -33 17 -62 32 -65 35 -3 3 -23 14 -45 25 -22 10 -48 26 -57 34
-10 8 -18 10 -18 6 0 -4 -8 -2 -18 6 -9 8 -30 21 -47 30 -16 9 -55 30 -85 46
-59 32 -196 105 -270 144 -25 13 -47 27 -48 32 -2 4 -8 5 -13 1 -5 -3 -9 0 -9
6 0 6 -4 8 -10 5 -5 -3 -10 -1 -10 4 0 6 -4 11 -10 11 -5 0 -32 14 -61 30 -28
17 -56 32 -63 33 -6 1 -13 5 -16 8 -3 3 -43 25 -89 50 -46 24 -92 55 -102 69
-10 14 -23 30 -28 36 -4 5 -14 21 -21 35 -7 13 -16 26 -20 29 -3 3 -17 23 -30
45 -13 22 -32 49 -42 59 -13 14 -15 24 -7 37 7 13 6 19 -1 19 -18 0 7 37 29
43 10 2 25 1 32 -4 8 -4 19 -3 26 3 9 7 13 7 13 -1 0 -7 5 -9 10 -6 14 9 108
10 116 2 4 -3 14 -2 23 3 10 5 23 5 29 1 7 -4 33 -5 58 -1 24 4 47 3 50 -2 3
-4 13 -4 23 2 10 5 21 6 25 3 5 -6 64 -8 84 -3 19 5 50 4 75 -2 15 -4 27 -3
27 1 0 3 12 6 28 5 15 -1 27 -3 27 -4 0 -1 17 -2 38 -3 20 -1 37 0 37 3 0 7
110 4 117 -3 3 -4 13 -2 23 3 10 5 20 6 24 3 6 -6 72 -6 136 0 14 1 34 -1 46
-4 11 -4 27 -3 34 1 8 5 18 6 24 3 8 -6 142 -6 211 0 17 1 39 -1 51 -4 11 -4
27 -3 34 1 8 5 18 6 24 3 11 -7 76 -10 76 -3 0 3 30 4 66 3 l66 -3 79 81 c44
44 79 83 80 87 0 4 2 23 4 42 8 76 16 157 21 205 3 28 7 1524 7 3325 l2 3275
173 2 172 1 1 -121 c1 -121 3 -252 14 -942 4 -198 6 -373 5 -390 -1 -16 -2
-34 -1 -40 5 -59 3 -123 -3 -133 -4 -7 -4 -12 1 -12 4 0 9 -141 11 -312 2
-172 7 -315 12 -318 4 -3 88 -5 186 -4 l177 1 32 62 32 62 -1 1074 -1 1075
-40 39 c-22 21 -64 50 -92 65 -37 18 -53 32 -53 46 0 19 -31 57 -73 89 -20 16
-107 32 -107 21 0 -4 -18 -4 -40 0 -22 4 -40 4 -40 0 0 -4 -15 -4 -34 0 -19 4
-39 4 -46 0 -7 -4 -27 -4 -45 0 -18 4 -38 4 -45 0 -7 -4 -24 -4 -39 -1 -14 4
-41 4 -58 0 -18 -4 -33 -4 -33 0 0 5 -20 5 -45 1 -25 -4 -45 -3 -45 1 0 4 -9
5 -21 2 -22 -6 -52 20 -64 56 -3 12 -17 33 -31 46 -13 13 -24 28 -24 32 0 4
-15 24 -33 43 -18 19 -40 45 -48 57 -9 13 -56 52 -105 88 -49 35 -102 75 -118
87 -29 23 -56 33 -111 43 -16 2 -46 9 -65 15 -24 7 -1504 10 -4567 10 -2493 0
-4534 -1 -4534 -2z"/>
</g>
</svg>
