<svg width="207" height="333" viewBox="0 0 207 333" fill="none" xmlns="http://www.w3.org/2000/svg">
<path d="M103.5 17L178.411 146.75H28.5888L103.5 17Z" fill="#04B400"/>
<rect x="7" y="132" width="193" height="194" rx="25" fill="white"/>
<rect x="14.9189" y="139.919" width="177.162" height="177.162" rx="25" fill="#04B400"/>
<rect x="5" y="130" width="197" height="197.373" rx="35" stroke="#454545" stroke-width="10"/>
<path fill-rule="evenodd" clip-rule="evenodd" d="M63.1752 168H142.825C148.799 168 153.655 173.265 153.655 179.626V269.919C153.655 276.332 148.799 281.545 142.825 281.545H63.1752C60.3067 281.531 57.5593 280.302 55.531 278.125C53.5027 275.948 52.3575 272.999 52.3447 269.919V179.626C52.3447 173.265 57.2014 168 63.1752 168ZM156.424 236.607V217.265H164V236.607H156.424ZM42 236.607V217.265H49.5764V236.607H42ZM127.623 283.474H141.999V289H127.623V283.474ZM64.0008 283.474H78.3766V289H64.0008V283.474ZM149.479 246.877L132.286 250.318C131.46 250.474 130.78 251.047 130.78 251.934V258.867C130.78 259.754 131.46 260.483 132.286 260.483H149.479C150.304 260.483 150.984 259.754 150.984 258.867V248.493C150.984 247.607 150.304 246.72 149.479 246.877ZM56.5215 246.877L73.7142 250.318C74.4912 250.474 75.2197 251.047 75.2197 251.934V258.867C75.2197 259.754 74.5398 260.483 73.7142 260.483H56.5215C55.6959 260.483 55.0159 259.754 55.0159 258.867V248.493C55.0159 247.607 55.6959 246.72 56.5215 246.877ZM80.6592 262.308H125.341V271.536H80.6592V262.308ZM58.2699 186.299H147.682V240.047C134.617 243.436 119.318 245.365 103 245.365C86.633 245.365 71.383 243.436 58.2699 240.047V186.299Z" fill="white"/>
</svg>
